<?xml version="1.0" encoding="utf-8"?>
<!-- Generator: Adobe Illustrator 19.0.0, SVG Export Plug-In . SVG Version: 6.00 Build 0)  -->
<svg version="1.1" id="Ebene_1" xmlns="http://www.w3.org/2000/svg" xmlns:xlink="http://www.w3.org/1999/xlink" x="0px" y="0px"
	 viewBox="13 -15.4 57.7 62.4" style="enable-background:new 13 -15.4 57.7 62.4;" xml:space="preserve">
<style type="text/css">
	.st0{fill:#FFFFFF;}
</style>
<title>haseundrudi-logo</title>
<path class="st0" d="M70.4,43.8c-1.5-2.8-3.6-4.1-6.4-4.1c-5.1,0-7.7,3.5-9.9,3.4c-1,0-1.9-0.5-2.3-1.3c4.7-1.2,8-5.5,8-10.4v-15
	c0-3.5-1.7-6.8-4.5-8.8c3-2,4.7-5.3,4.7-8.8v-3l-0.1-10.2c0-0.2-0.1-0.3-0.1-0.4c-0.1-0.1-0.2-0.3-0.3-0.3c-0.3-0.2-0.6-0.2-0.9,0
	l-4,1.8c-3.2-1.9-7.2-1.8-10.4,0.1l-3.8-1.8c-0.3-0.2-0.6-0.2-0.9,0c-0.1,0.1-0.3,0.2-0.3,0.3c-0.1,0.1-0.1,0.3-0.1,0.4L38.9-5
	c0,0,0,0.1,0.1,0.1c0,0.2-0.1,0.4-0.1,0.6v3c0,3.5,1.8,6.8,4.7,8.8c-2.9,2-4.5,5.3-4.5,8.8v15C39,36.6,42.7,41,47.8,42l0,0
	c0,0.2,0.1,0.5,0.2,0.7c0.9,2.6,3.3,4.3,6,4.3c4.2,0.2,6.9-3.4,10.1-3.4c1.3,0,2.5,0.8,3,2.1c0.5,0.9,1.7,1.3,2.6,0.8
	c0.6-0.3,1-1,1-1.7C70.6,44.5,70.6,44.1,70.4,43.8z"/>
<path class="st0" d="M23.4,33.4c-1,0-1.9,0.8-1.9,1.8c0,1,0.8,1.9,1.8,1.9s1.9-0.8,1.9-1.8c0,0,0-0.1,0-0.1
	C25.2,34.2,24.5,33.4,23.4,33.4z"/>
<path class="st0" d="M29.1,22.1c3.9-3.2,4.5-9,1.3-12.9C30,8.7,29.6,8.4,29.2,8c1.2-1.4,2-3.2,2.3-5l1.8-10.2c0.7-4-0.7-7.6-3.2-8.1
	s-5,2.5-5.7,6.5l-1,5.5l-1-5.5c-0.7-4-3.3-6.9-5.8-6.5s-3.8,4.1-3.1,8.1L15.3,3c0.3,1.9,1.1,3.6,2.3,5c-2,1.7-3.2,4.2-3.2,6.9
	c0,2.8,1.2,5.4,3.4,7.2c-3,2-4.8,5.5-4.8,9.1c0.2,5.8,5,10.2,10.8,10c5.8-0.2,10.2-5,10-10.8C33.7,27.1,31.9,24,29.1,22.1z M26.1,2
	l1.8-10.2c0.2-1.3,0.7-2.5,1.6-3.4c0.5,1.2,0.7,2.6,0.4,3.9L28.1,2.4c-0.2,1.3-0.7,2.5-1.6,3.4C25.9,4.6,25.7,3.3,26.1,2L26.1,2z
	 M23.4,9.4c3-0.1,5.5,2.4,5.6,5.4c0.1,3-2.4,5.5-5.4,5.6c-3,0.1-5.5-2.4-5.6-5.4c0,0,0,0,0,0C18,12,20.4,9.6,23.4,9.4L23.4,9.4z
	 M16.9-7.9c-0.3-1.3-0.2-2.6,0.3-3.8c0.9,1,1.5,2.2,1.7,3.5L20.8,2c0.3,1.3,0.2,2.6-0.3,3.8c-0.9-1-1.5-2.2-1.7-3.5L16.9-7.9z
	 M23.4,38.3c-3.9,0.2-7.2-2.9-7.4-6.8c-0.2-3.9,2.9-7.2,6.8-7.4c3.9-0.2,7.2,2.9,7.4,6.8c0,0.1,0,0.2,0,0.3
	C30.4,35.1,27.4,38.2,23.4,38.3C23.5,38.3,23.5,38.3,23.4,38.3z"/>
</svg>
